<svg width="20" height="19" viewBox="0 0 20 19" fill="none" xmlns="http://www.w3.org/2000/svg">
<path fill-rule="evenodd" clip-rule="evenodd" d="M6 2C6 0.895431 6.89543 0 8 0H12C13.1046 0 14 0.895431 14 2V3H13V2C13 1.44772 12.5523 1 12 1H8C7.44772 1 7 1.44772 7 2V3H6V2ZM0 6C0 4.89543 0.895431 4 2 4H18C19.1046 4 20 4.89543 20 6V10C20 11.1046 19.1046 12 18 12H13C13 10.8954 12.1046 10 11 10H9C7.89543 10 7 10.8954 7 12H2C0.895431 12 0 11.1046 0 10V6ZM9 15C7.89544 15 7.00001 14.1046 7 13H2C1.40265 13 0.866472 12.7381 0.5 12.3229V17C0.5 18.1046 1.39543 19 2.5 19H17.5C18.6046 19 19.5 18.1046 19.5 17V12.3229C19.1335 12.7381 18.5973 13 18 13H13C13 14.1046 12.1046 15 11 15H9ZM9 11C8.44771 11 8 11.4477 8 12V13C8 13.5523 8.44771 14 9 14H11C11.5523 14 12 13.5523 12 13V12C12 11.4477 11.5523 11 11 11H9Z" fill="#800080"/>
</svg>
