<svg width="20" height="20" viewBox="0 0 20 20" fill="none" xmlns="http://www.w3.org/2000/svg">
<path fill-rule="evenodd" clip-rule="evenodd" d="M0 3C0 1.34315 1.34315 0 3 0H17C18.6569 0 20 1.34315 20 3V12.7895C20 14.4463 18.6569 15.7895 17 15.7895H9.47371L5.26318 20V15.7895H3C1.34315 15.7895 0 14.4463 0 12.7895V3ZM8.5703 4.60131C8.63567 4.25265 8.9401 4 9.29483 4C9.75639 4 10.1044 4.41935 10.0194 4.873L9.80804 6H10.942L11.2042 4.60131C11.2696 4.25265 11.574 4 11.9287 4C12.3903 4 12.7383 4.41935 12.6533 4.873L12.442 6L14 6C14.4142 6 14.75 6.33579 14.75 6.75C14.75 7.16421 14.4142 7.5 14 7.5H12.1607L11.9732 8.5H13C13.4142 8.5 13.75 8.83579 13.75 9.25C13.75 9.66421 13.4142 10 13 10H11.692L11.4297 11.3987C11.3643 11.7473 11.0599 12 10.7052 12C10.2436 12 9.89558 11.5807 9.98064 11.127L10.192 10H9.05804L8.79579 11.3987C8.73042 11.7473 8.42599 12 8.07126 12C7.6097 12 7.26167 11.5807 7.34673 11.127L7.55804 10H6C5.58579 10 5.25 9.66421 5.25 9.25C5.25 8.83579 5.58579 8.5 6 8.5H7.83929L8.02679 7.5H7C6.58579 7.5 6.25 7.16421 6.25 6.75C6.25 6.33579 6.58579 6 7 6H8.30804L8.5703 4.60131ZM9.33929 8.5L9.52679 7.5H10.6607L10.4732 8.5H9.33929Z" fill="#D1D1D1"/>
</svg>