<svg width="20" height="20" viewBox="0 0 20 20" fill="none" xmlns="http://www.w3.org/2000/svg">
<path fill-rule="evenodd" clip-rule="evenodd" d="M0 3C0 1.34315 1.34315 0 3 0H17C18.6569 0 20 1.34315 20 3V12.7895C20 14.4463 18.6569 15.7895 17 15.7895H9.47368L5.26316 20V15.7895H3C1.34315 15.7895 0 14.4463 0 12.7895V3ZM8.57028 4.60131C8.63565 4.25265 8.94008 4 9.29481 4C9.75637 4 10.1044 4.41935 10.0193 4.873L9.80803 6H10.9419L11.2042 4.60131C11.2696 4.25265 11.574 4 11.9287 4C12.3903 4 12.7383 4.41935 12.6532 4.873L12.4419 6L14 6C14.4142 6 14.75 6.33579 14.75 6.75C14.75 7.16421 14.4142 7.5 14 7.5H12.1607L11.9732 8.5H13C13.4142 8.5 13.75 8.83579 13.75 9.25C13.75 9.66421 13.4142 10 13 10H11.6919L11.4297 11.3987C11.3643 11.7473 11.0599 12 10.7052 12C10.2436 12 9.89557 11.5807 9.98063 11.127L10.1919 10H9.05803L8.79577 11.3987C8.7304 11.7473 8.42597 12 8.07124 12C7.60968 12 7.26165 11.5807 7.34671 11.127L7.55803 10H5.99998C5.58577 10 5.24998 9.66421 5.24998 9.25C5.24998 8.83579 5.58577 8.5 5.99998 8.5H7.83928L8.02678 7.5H6.99998C6.58577 7.5 6.24998 7.16421 6.24998 6.75C6.24998 6.33579 6.58577 6 6.99998 6H8.30803L8.57028 4.60131ZM9.33928 8.5L9.52678 7.5H10.6607L10.4732 8.5H9.33928Z" fill="#800080"/>
</svg>
