<svg width="16" height="20" viewBox="0 0 16 20" fill="none" xmlns="http://www.w3.org/2000/svg">
<path fill-rule="evenodd" clip-rule="evenodd" d="M8.0002 0C7.11654 0 6.4002 0.716344 6.4002 1.6V1.80156C3.63963 2.51189 1.5998 5.01775 1.5998 8.00003V13.6H2C0.895431 13.6 0 14.4955 0 15.6V15.8C0 16.3523 0.447715 16.8 1 16.8H15C15.5523 16.8 16 16.3523 16 15.8V15.6C16 14.4955 15.1046 13.6 14 13.6H14.3998V8.00003C14.3998 5.01803 12.3604 2.51237 9.60019 1.80176V1.6C9.60019 0.716344 8.88385 0 8.0002 0ZM5.5998 17.6C5.5998 18.9255 6.67432 20 7.9998 20C9.32529 20 10.3998 18.9255 10.3998 17.6H5.5998Z" fill="#800080"/>
</svg>