<svg width="16" height="20" viewBox="0 0 16 20" fill="none" xmlns="http://www.w3.org/2000/svg">
<path fill-rule="evenodd" clip-rule="evenodd" d="M8.00015 0C7.11649 0 6.40015 0.716344 6.40015 1.6V1.80159C3.63963 2.51196 1.59985 5.01779 1.59985 8.00004V13.6H2C0.895431 13.6 0 14.4955 0 15.6V15.8C0 16.3523 0.447715 16.8 1 16.8H15C15.5523 16.8 16 16.3523 16 15.8V15.6C16 14.4955 15.1046 13.6 14 13.6H14.3999V8.00004C14.3999 5.018 12.3604 2.51231 9.60015 1.80174V1.6C9.60015 0.716344 8.8838 0 8.00015 0ZM5.59985 17.6C5.59985 18.9255 6.67437 20 7.99985 20C9.32534 20 10.3999 18.9255 10.3999 17.6H5.59985Z" fill="#D1D1D1"/>
</svg>