<svg width="18" height="20" viewBox="0 0 18 20" fill="none" xmlns="http://www.w3.org/2000/svg">
<path fill-rule="evenodd" clip-rule="evenodd" d="M0 3C0 1.34315 1.34315 0 3 0H15C16.6569 0 18 1.34315 18 3V15C18 16.6569 16.6569 18 15 18H13.584C13.8516 17.3875 14 16.7111 14 16C14 13.2386 11.7614 11 9 11C6.23858 11 4 13.2386 4 16C4 16.7111 4.14845 17.3875 4.41604 18H3C1.34315 18 0 16.6569 0 15V3ZM4 3C3.44772 3 3 3.44772 3 4C3 4.55228 3.44772 5 4 5H14C14.5523 5 15 4.55228 15 4C15 3.44772 14.5523 3 14 3H4ZM3 8C3 7.44772 3.44772 7 4 7H14C14.5523 7 15 7.44772 15 8C15 8.55229 14.5523 9 14 9H4C3.44772 9 3 8.55229 3 8ZM13 16C13 18.2091 11.2091 20 9 20C6.79086 20 5 18.2091 5 16C5 13.7909 6.79086 12 9 12C11.2091 12 13 13.7909 13 16ZM7.93791 18.0305L6.52509 16.6176C6.13457 16.2271 6.13457 15.594 6.52509 15.2034C6.91561 14.8129 7.54878 14.8129 7.9393 15.2034L8.64641 15.9105L10.0606 14.4963C10.4511 14.1058 11.0843 14.1058 11.4748 14.4963C11.8654 14.8868 11.8654 15.52 11.4748 15.9105L9.35352 18.0319C8.96299 18.4224 8.32983 18.4224 7.9393 18.0319L7.93791 18.0305Z" fill="#D1D1D1"/>
</svg>